<svg class="svg-icon" style="width: 1em; height: 1em;vertical-align: middle;fill: currentColor;overflow: hidden;" viewBox="0 0 1024 1024" version="1.1" xmlns="http://www.w3.org/2000/svg"><path d="M512 1024c-215.04 0-392.533333-146.773333-392.533333-324.266667 0-122.88 266.24-392.533333 293.546666-423.253333 3.413333 0 10.24-3.413333 13.653334-3.413333h170.666666c3.413333 0 10.24 3.413333 13.653334 3.413333 30.72 30.72 293.546667 300.373333 293.546666 423.253333 0 177.493333-177.493333 324.266667-392.533333 324.266667zM433.493333 307.2c-81.92 85.333333-279.893333 303.786667-279.893333 392.533333C153.6 860.16 314.026667 989.866667 512 989.866667s358.4-129.706667 358.4-290.133334c0-88.746667-197.973333-307.2-279.893333-392.533333h-157.013334z" fill="" /><path d="M682.666667 307.2H341.333333c-10.24 0-17.066667-6.826667-17.066666-17.066667s6.826667-17.066667 17.066666-17.066666h341.333334c10.24 0 17.066667 6.826667 17.066666 17.066666s-6.826667 17.066667-17.066666 17.066667z" fill="" /><path d="M597.333333 307.2h-170.666666c-3.413333 0-6.826667 0-10.24-3.413333-54.613333-47.786667-228.693333-215.04-170.666667-279.893334 6.826667-6.826667 17.066667-13.653333 27.306667-13.653333 40.96 0 105.813333 54.613333 136.533333 81.92 23.893333-34.133333 71.68-92.16 102.4-92.16s78.506667 58.026667 105.813333 92.16c30.72-27.306667 95.573333-81.92 136.533334-81.92 10.24 0 20.48 3.413333 27.306666 13.653333 58.026667 64.853333-116.053333 232.106667-170.666666 279.893334-6.826667 3.413333-10.24 3.413333-13.653334 3.413333z m-163.84-34.133333h157.013334c98.986667-88.746667 187.733333-201.386667 163.84-228.693334-27.306667-3.413333-92.16 47.786667-129.706667 85.333334-3.413333 6.826667-6.826667 6.826667-10.24 6.826666-3.413333 0-10.24-3.413333-13.653333-6.826666C566.613333 81.92 525.653333 34.133333 512 34.133333c-13.653333 0-54.613333 47.786667-88.746667 95.573334-3.413333 3.413333-6.826667 6.826667-13.653333 6.826666-3.413333 0-10.24 0-13.653333-3.413333-34.133333-37.546667-98.986667-88.746667-122.88-88.746667-27.306667 27.306667 61.44 139.946667 160.426666 228.693334zM512 836.266667c-44.373333 0-81.92-34.133333-85.333333-75.093334 0-10.24 6.826667-17.066667 17.066666-17.066666s17.066667 6.826667 17.066667 17.066666c0 23.893333 23.893333 44.373333 51.2 44.373334s51.2-20.48 51.2-47.786667c0-30.72-27.306667-40.96-51.2-47.786667h-3.413333c-54.613333-13.653333-81.92-40.96-81.92-81.92 0-44.373333 37.546667-81.92 85.333333-81.92 44.373333 0 81.92 34.133333 85.333333 75.093334 0 10.24-6.826667 17.066667-17.066666 17.066666s-17.066667-6.826667-17.066667-17.066666c0-23.893333-23.893333-44.373333-51.2-44.373334s-51.2 20.48-51.2 47.786667c0 30.72 27.306667 40.96 51.2 47.786667h3.413333c54.613333 13.653333 81.92 40.96 81.92 81.92 0 44.373333-37.546667 81.92-85.333333 81.92z" fill="" /><path d="M512 853.333333c-10.24 0-17.066667-6.826667-17.066667-17.066666v-307.2c0-10.24 6.826667-17.066667 17.066667-17.066667s17.066667 6.826667 17.066667 17.066667v307.2c0 10.24-6.826667 17.066667-17.066667 17.066666z" fill="" /></svg>