<svg xmlns="http://www.w3.org/2000/svg" version="1.1" viewBox="-5.0 -10.0 110.0 135.0">
 <g>
  <path d="m87.062 86.801c-1.75-4.4492-2.9023-7.9727-3.8281-10.801-1.8828-5.7461-2.918-8.9141-6.1953-11.238-3.1367-2.2227-8.2539-3.5469-17.691-5.8203l-2.2422-4.1641c1.3555-0.89062 2.5742-2.0664 3.6367-3.5117 2.0625-2.8086 3.5273-6.5703 4.3594-11.191 0.82813-0.38672 1.5312-1.0195 2.0508-1.8594 0.57422-0.92969 0.89062-2.0664 0.89062-3.207 0-1.2188-0.35547-2.2969-0.97656-3.1133v-0.003906c0.97266-3.6367 0.98438-7.0039 0.035156-10.012-0.86328-2.7422-2.543-5.1289-4.8555-6.9023-2.6055-2-6-3.1953-9.5586-3.3594-3.543-0.16406-7.043 0.65234-10.141 2.3672-1.5898-0.046875-3.0625 0.29297-4.375 1.0195-1.3125 0.72656-2.4062 1.7969-3.2422 3.1797-2.1289 3.5117-2.1836 8.3398-0.23438 12.398-1.6797 0.61719-2.7422 2.3125-2.7422 4.4258 0 1.1406 0.31641 2.2773 0.89062 3.207 0.51953 0.84375 1.2227 1.4766 2.0508 1.8594 0.83203 4.6211 2.2969 8.3828 4.3594 11.191 1.0273 1.3984 2.1992 2.543 3.5 3.4219l-2.125 4.2617c-9.4258 2.2695-14.535 3.5938-17.668 5.8164-3.2773 2.3242-4.3125 5.4922-6.1953 11.238-0.92578 2.832-2.082 6.3555-3.8281 10.801-0.23828 0.60547 0.058594 1.2852 0.66406 1.5234 0.14063 0.054687 0.28516 0.082031 0.42969 0.082031 0.46875 0 0.91016-0.28125 1.0938-0.74609 1.7734-4.5117 2.9375-8.0703 3.875-10.93 1.7812-5.4453 2.6758-8.1758 5.3203-10.051 1.7188-1.2188 4.2617-2.1719 8.1016-3.2383-0.35156 0.58203-0.64453 1.2031-0.89062 1.8711-0.54297 1.4766-0.83203 3.1641-0.90625 5.2578-1.6016 0.3125-3.0664 1.2734-4.2031 2.7852-1.332 1.7695-2.0703 4.1055-2.0703 6.5742 0 0.64844 0.52734 1.1758 1.1758 1.1758h1.7812c0.64844 0 1.1758-0.52734 1.1758-1.1758 0-0.64844-0.52734-1.1758-1.1758-1.1758h-0.53906c0.17969-1.5117 0.70703-2.8984 1.5273-3.9883 0.95312-1.2656 2.1914-1.9648 3.4844-1.9648s2.5312 0.69531 3.4844 1.9648c0.82031 1.0898 1.3477 2.4727 1.5273 3.9883h-0.38672c-0.64844 0-1.1758 0.52734-1.1758 1.1758 0 0.64844 0.52734 1.1758 1.1758 1.1758h1.6328c0.64844 0 1.1758-0.52734 1.1758-1.1758 0-2.4688-0.73438-4.8047-2.0703-6.5742-1.1289-1.5-2.5781-2.457-4.168-2.7812 0.15234-4.0156 1.2148-6.4531 3.543-8.207 1.1992-0.30078 2.4922-0.61328 3.8867-0.95312 0.18359 0.91406 0.54297 1.7969 1.0742 2.6367 0.68359 1.082 1.6289 2.082 2.8984 3.0664 2.2188 1.7188 5.0273 3.043 7.2891 4.1055 0.49219 0.23047 0.96875 0.45703 1.4102 0.67188v15.336c0 0.64844 0.52734 1.1758 1.1758 1.1758 0.64844 0 1.1758-0.52734 1.1758-1.1758v-16.066c0-0.44141-0.25-0.84766-0.64453-1.0469-0.53906-0.27344-1.125-0.55469-1.75-0.84766 1.5469-0.53125 2.7773-1.2109 3.7656-2.0742 1.625-1.418 2.582-3.3555 2.8516-5.7656 1.3711 0.33203 2.6406 0.64062 3.8203 0.9375 1.5469 1.1562 7.0586 5.7891 7.7188 13.52-1.9844 0.55469-3.4453 2.3789-3.4453 4.5391 0 2.5977 2.1133 4.7109 4.7109 4.7109 2.5977 0 4.7109-2.1133 4.7109-4.7109 0-2.2266-1.5508-4.0938-3.625-4.5859-0.25-3.2422-1.2852-6.3359-3.0781-9.2266-0.71094-1.1445-1.4648-2.1328-2.207-2.9805 3.457 0.98828 5.7969 1.8984 7.4102 3.043 2.6445 1.875 3.5391 4.6094 5.3203 10.051 0.9375 2.8594 2.1016 6.418 3.875 10.93 0.18359 0.46484 0.625 0.74609 1.0938 0.74609 0.14453 0 0.28906-0.027344 0.42969-0.082031 0.61328-0.23828 0.91406-0.91797 0.67578-1.5234zm-50.121-67.402c1.293-2.1328 3.3555-3.2188 5.8125-3.0547 0.23438 0.015625 0.46484-0.039062 0.66797-0.15625 5.5586-3.2109 12.715-2.9414 17.398 0.65234 3.9922 3.0664 5.4648 7.8633 4.1914 13.578-8.4062-0.22266-16.914-3.4961-21.887-8.4688-0.29688-0.29688-0.73047-0.41406-1.1367-0.30469s-0.72266 0.42578-0.83203 0.83203c-0.80859 3.0156-2.4922 5.6836-4.3438 7.082-1.6133-3.3594-1.5938-7.3125 0.12891-10.16zm4.207 30.473c-1.9141-2.6055-3.3125-6.3594-4.0508-10.855-0.074218-0.45703-0.41016-0.82422-0.85547-0.94531-1.332-0.35547-1.9375-1.8398-1.9375-3.0664 0-0.92188 0.35156-2 1.3398-2.2656 1.6953-0.45312 3.3516-1.6719 4.793-3.5273 0.96875-1.2461 1.793-2.7422 2.4062-4.3281 2.7148 2.3164 6.1367 4.2422 10.008 5.6133 3.707 1.3164 7.6602 2.082 11.527 2.2461 0.96875 0.27344 1.3164 1.3438 1.3164 2.2578 0 1.2266-0.60547 2.7109-1.9375 3.0664-0.44531 0.12109-0.78125 0.48828-0.85547 0.94531-0.73438 4.4961-2.1367 8.25-4.0508 10.855-2.2422 3.0508-5.2188 4.5977-8.8516 4.5977-3.6328 0.007812-6.6094-1.5391-8.8516-4.5938zm8.6445 17.828c-3.5039-1.8047-6.9961-4.1602-7.1719-7.4805l2.1992-4.4102c1.582 0.67188 3.3203 1.0117 5.1797 1.0117 1.8008 0 3.4844-0.32031 5.0273-0.94922l2.3555 4.375c-0.097656 4.2305-2.3164 6.4023-7.5898 7.4531zm25.035 12.727c0 1.3047-1.0586 2.3633-2.3633 2.3633-1.3047 0-2.3633-1.0586-2.3633-2.3633 0-1.3047 1.0586-2.3633 2.3633-2.3633 1.3047 0 2.3633 1.0586 2.3633 2.3633z"/>
  <path d="m50 74.875c-0.64844 0-1.1758 0.52734-1.1758 1.1758v1.3672c0 0.64844 0.52734 1.1758 1.1758 1.1758s1.1758-0.52734 1.1758-1.1758v-1.3672c0-0.64844-0.52734-1.1758-1.1758-1.1758z"/>
  <path d="m50 82.332c-0.64844 0-1.1758 0.52734-1.1758 1.1758v1.3672c0 0.64844 0.52734 1.1758 1.1758 1.1758s1.1758-0.52734 1.1758-1.1758v-1.3672c0-0.64844-0.52734-1.1758-1.1758-1.1758z"/>
 </g>
<text x="0.0" y="117.5" font-size="5.0" font-weight="bold" font-family="Arbeit Regular, Helvetica, Arial-Unicode, Arial, Sans-serif" fill="#000000">Created by Amanda</text><text x="0.0" y="122.5" font-size="5.0" font-weight="bold" font-family="Arbeit Regular, Helvetica, Arial-Unicode, Arial, Sans-serif" fill="#000000">from Noun Project</text></svg>